<svg width="640" height="640" viewBox="0 0 640 640" fill="none" xmlns="http://www.w3.org/2000/svg">
<rect width="640" height="640" fill="black"/>
<circle cx="320" cy="320" r="320" fill="white"/>
<circle cx="320" cy="320" r="301" fill="black"/>
<path fill-rule="evenodd" clip-rule="evenodd" d="M263.231 318.68C268.701 308.339 279.993 306.316 282.736 290.762C285.126 277.216 279.872 264.113 268.7 257.616C258.685 251.792 250.496 254.622 245.301 256.427C243.261 257.136 240.942 258.981 238.761 259.582C235.636 260.446 230.749 258.453 229.228 254.644C228.508 252.844 228.017 250.961 227.506 249.152C225.322 241.428 219.388 236.682 211.951 237.594C206.917 238.212 202.307 241.869 200.193 245.78C196.003 253.531 198.717 265.034 208.713 268.92C213.326 270.714 217.376 268.123 221.744 268.726C224.157 269.059 227.967 272.034 228.434 274.474C228.826 276.524 228.549 279.932 228.733 281.603C230.45 297.129 234.935 301.874 243.532 309.857C250.633 316.45 249.792 327.155 243.365 338.321C240.884 342.632 238.185 345.529 237.285 349.071C230.108 377.312 269.04 381.841 268.922 355.269C268.861 341.6 254.019 336.093 263.231 318.68V318.68Z" fill="white"/>
<path fill-rule="evenodd" clip-rule="evenodd" d="M293.078 174.072C301.241 165.561 286.625 154.256 284.917 144.865C282.964 134.128 290.686 126.795 299.093 127.004C307.086 127.203 315.787 134.384 314.255 145.682C313.791 149.105 312.793 150.986 310.618 154.481C308.137 158.47 305.309 160.711 304.331 163.806C302.067 170.964 304.669 174.289 307.512 178.092C320.376 195.311 303.86 211.406 291.18 202.706C287.816 200.4 286.597 197.503 285.142 192.524C284.277 189.565 282.978 187.962 281.677 187.041C280.327 186.084 278.93 185.863 275.969 185.922C271.907 186.004 270.442 187.808 267.171 188.527C262.533 189.547 256.166 189.03 250.058 183.889C241.433 176.626 239.429 162.292 245.966 152.622C248.028 149.572 250.649 147.222 253.558 145.639C264.735 139.552 280.819 146.285 282.595 160.627C283.046 164.273 282.834 167.834 284.199 171.36C284.67 172.579 285.333 173.795 286.275 175.01C287.422 176.489 288.56 176.25 289.489 176.137C290.602 176.003 291.517 175.702 293.078 174.072V174.072Z" fill="white"/>
<path fill-rule="evenodd" clip-rule="evenodd" d="M197.196 229.458C202.511 209.677 174.338 200.732 168.574 220.088C162.405 240.802 191.183 251.838 197.196 229.458Z" fill="white"/>
<path fill-rule="evenodd" clip-rule="evenodd" d="M301.16 353.729C299.397 355.138 297.774 356.887 297.246 358.755C295.676 364.343 295.968 370.047 297.729 373.933C300.077 379.119 307.416 383.397 308.207 393.681C308.779 401.129 305.002 409.19 296.208 411.411C288.61 413.33 280.4 408.362 277.767 399.85C276.133 394.564 276.72 387.594 280.728 381.001C282.631 377.873 285.059 376.182 286.776 373.329C289.014 369.605 290.25 364.601 289.613 358.953C288.392 350.457 281.551 347.182 277.872 339.569C272.656 328.781 275.382 315.335 283.836 308.776C290.581 303.543 302.809 305.685 308.337 312.217C317.426 322.956 311.67 345.324 301.16 353.729V353.729Z" fill="white"/>
<path fill-rule="evenodd" clip-rule="evenodd" d="M152.579 272.896C150.896 283.134 154.969 295.324 164.499 299.338C171.902 302.459 180.961 301.312 187.528 306.308C194.803 311.864 196.069 320.079 196.819 328.123C197.174 331.937 197.493 336.659 198.532 342.085C198.947 344.25 198.663 346.299 198.326 347.824C197.536 351.394 196.065 354.709 192.714 357.691C186.749 362.645 180.068 359.943 172.944 362.511C164.172 365.672 158.756 373.294 158.634 381.627C158.486 391.658 165.403 400.65 174.827 401.031C182.993 401.36 191.979 396.082 193.947 386.699C195.478 379.409 193.488 371.091 196.578 364.355C198.728 359.689 201.974 357.088 205.609 355.385C210.123 353.275 209.624 355.074 214.006 355.202C216.561 355.277 219.29 354.689 222.088 353.256C229.917 349.247 233.99 338.768 230.984 329.368C229.117 323.53 224.263 317.885 216.654 315.128C208.335 312.113 200.394 312.08 195.158 302.527C190.931 294.198 194.86 286.22 193.329 276.822C191.445 265.247 184.328 257.175 175.6 255.659C165.089 253.833 154.52 261.079 152.579 272.896V272.896Z" fill="white"/>
<path fill-rule="evenodd" clip-rule="evenodd" d="M193.613 199.654C196.235 211.851 206.07 223.179 218.356 222.608C227.902 222.163 237.407 216.136 246.849 218.207C257.317 220.521 262.312 228.933 266.661 237.425C270.144 244.224 273.085 251.809 278.957 256.039C286.566 261.52 297.602 261.801 305.582 251.916C312.476 243.373 312.389 229.656 304.953 220.85C300.336 215.381 292.502 211.696 282.889 212.647C272.378 213.688 263.59 217.823 253.624 210.019C245.307 203.038 246.158 192.16 240.353 182.581C233.203 170.784 221.808 165.606 211.503 168.516C199.09 172.022 190.585 185.581 193.613 199.654Z" fill="white"/>
<path fill-rule="evenodd" clip-rule="evenodd" d="M237.516 413.086C224.851 407.93 221.425 431.133 213.088 438.09C203.64 445.978 190.858 440.41 186.539 429.683C181.479 417.117 188.565 406.458 198.454 403.026C202.064 401.771 204.439 401.961 209.021 402.69C214.249 403.519 217.941 405.679 221.499 405.205C229.73 404.111 231.631 399.289 233.875 393.932C244.039 369.685 268.557 380.713 266.674 400.261C266.176 405.446 263.969 408.409 259.838 412.747C257.384 415.325 256.491 417.702 256.27 419.723C256.04 421.82 256.556 423.587 258.173 427.05C260.391 431.802 262.936 432.582 265.365 436.066C268.807 441.004 271.65 448.794 269.808 458.709C267.204 472.713 254.161 482.622 241.212 479.992C237.129 479.163 233.438 477.306 230.351 474.705C218.482 464.713 216.641 442.181 229.811 432.538C233.158 430.088 236.771 428.463 239.52 424.997C240.472 423.798 241.32 422.377 242.018 420.625C242.869 418.492 242.036 417.276 241.437 416.238C240.718 414.995 239.94 414.073 237.516 413.086Z" fill="white"/>
<path fill-rule="evenodd" clip-rule="evenodd" d="M305.92 507.616C311.134 501.341 313.142 490.984 308.147 483.685C304.265 478.012 297.552 474.503 294.992 467.932C292.163 460.64 294.539 454.361 297.203 448.448C299.335 443.713 302.076 439.009 301.984 433.795C301.864 427.04 297.781 420.178 289.686 419.08C282.691 418.132 275.732 423.438 274.09 431.361C273.07 436.28 274.191 442.486 278.357 448.005C282.913 454.039 288.386 457.833 288.223 466.921C287.849 474.684 281.978 478.329 279.317 485.55C276.041 494.443 277.765 503.399 283.195 508.591C289.735 514.845 299.904 514.859 305.92 507.616Z" fill="white"/>
<path fill-rule="evenodd" clip-rule="evenodd" d="M183.113 324.907C189.262 347.794 156.666 358.144 149.997 335.748C142.86 311.781 176.156 299.013 183.113 324.907Z" fill="white"/>
<path fill-rule="evenodd" clip-rule="evenodd" d="M373.254 268.949C377.689 271.669 379.673 268.137 383.594 266.58C394.323 262.321 409.293 271.373 404.501 290.233C403.602 293.773 400.902 296.672 398.421 300.982C391.994 312.149 394.497 323.491 401.597 330.083C410.194 338.066 414.681 342.811 416.396 358.337C417.565 368.915 427.378 387.749 435.889 390.805C439.86 392.232 442.258 391.569 444.715 391.425C449.803 391.124 454.129 393.993 456.747 398.162C464.143 409.95 455.66 423.357 443.108 419.766C438.704 418.507 434.723 413.604 432.597 406.079C432.088 404.274 431.775 402.285 430.876 400.587C424.445 388.449 410.748 380.523 399.393 384.469C393.902 386.376 384.579 386.028 378.428 383.393C366.045 378.091 358.081 364.405 361.085 347.382C363.829 331.829 373.086 330.965 378.556 320.624C387.767 303.21 372.925 297.703 372.864 284.035C372.846 280.07 372.405 278.169 370.048 276.195C366.141 272.925 361.309 274.475 357.258 276.241C348.758 279.95 337.877 277 334.232 263.432C328.082 240.545 360.68 230.195 367.349 252.591C367.993 254.756 368.31 256.831 368.342 258.792C368.427 263.804 369.315 266.533 373.254 268.949Z" fill="white"/>
<path fill-rule="evenodd" clip-rule="evenodd" d="M348.707 465.231C340.545 473.743 355.162 485.047 356.869 494.438C358.805 505.082 350.319 513.539 341.402 513.16C330.956 512.716 326.26 502.996 327.531 493.621C327.994 490.198 328.993 488.317 331.168 484.822C333.649 480.834 336.477 478.592 337.455 475.498C339.719 468.339 337.117 465.014 334.274 461.211C321.41 443.992 337.925 427.897 350.606 436.597C353.97 438.904 355.189 441.801 356.644 446.78C357.509 449.738 358.808 451.34 360.109 452.262C361.459 453.218 362.857 453.441 365.817 453.381C369.879 453.299 371.344 451.495 374.615 450.776C379.252 449.757 385.621 450.273 391.728 455.414C400.352 462.677 402.357 477.012 395.819 486.681C393.758 489.731 391.137 492.081 388.228 493.664C377.051 499.752 360.966 493.018 359.191 478.676C358.74 475.031 358.951 471.47 357.587 467.944C357.115 466.723 356.453 465.508 355.511 464.294C354.363 462.814 353.226 463.054 352.297 463.165C351.184 463.301 350.269 463.602 348.707 465.231Z" fill="white"/>
<path fill-rule="evenodd" clip-rule="evenodd" d="M489.207 375.103C490.89 364.863 486.817 352.673 477.288 348.659C469.883 345.539 460.825 346.686 454.258 341.689C449.234 337.853 447.506 332.547 447.771 326.967C448.435 312.94 447.073 312.519 443.977 302.329C443.347 300.255 442.992 298.133 443.521 295.848C444.324 292.381 445.806 289.156 449.074 286.25C455.039 281.294 461.718 283.996 468.841 281.429C477.614 278.267 483.029 270.645 483.151 262.315C483.299 252.281 476.383 243.292 466.96 242.91C458.793 242.581 449.806 247.858 447.838 257.241C446.31 264.531 448.298 272.849 445.207 279.584C443.008 284.358 439.664 286.971 435.927 288.67C431.799 290.547 432.693 289.161 428.697 288.793C418.484 287.852 410.325 294.398 407.827 304C406.807 307.922 407.076 312.344 408.622 317.181C410.486 323.014 417.524 330.114 425.132 332.87C433.451 335.885 441.393 335.917 446.628 345.471C450.856 353.801 446.926 361.778 448.457 371.177C450.342 382.752 457.459 390.822 466.185 392.338C476.697 394.165 487.267 386.919 489.207 375.103V375.103Z" fill="white"/>
<path fill-rule="evenodd" clip-rule="evenodd" d="M333.812 325.103C330.976 320.164 329.064 316.397 328.624 310.648C328.392 307.63 329.028 304.052 330.456 300.758C337.379 284.801 358.853 290.194 362.698 302.637C364.33 307.918 363.744 314.892 359.737 321.486C353.849 331.17 351.045 331.28 348.619 343.79C347.328 350.446 346.474 358.253 346.33 364.501C346.196 370.302 349.195 377.977 354.483 380.083C361.943 383.053 365.071 385.624 371.139 399.847C374.553 407.848 379.637 415.219 389.155 417.324C397.741 419.206 406.385 413.726 415.066 413.322C426.238 412.802 435.181 423.103 437.566 434.194C440.32 446.992 432.584 459.322 421.298 462.51C411.926 465.156 401.564 460.448 395.062 449.72C389.784 441.01 390.557 431.117 382.995 424.768C373.931 417.673 363.904 424.501 354.347 425.445C342.988 426.566 336.793 426.123 328.758 416.605C323.686 410.598 323.536 400.386 326.392 392.496C328.474 386.738 332.748 382.573 335.533 376.987C339.082 369.874 341.366 338.347 339.037 332.785C337.379 328.826 335.969 328.858 333.812 325.103Z" fill="white"/>
<path fill-rule="evenodd" clip-rule="evenodd" d="M367.696 207.943C366.058 215.862 359.094 221.171 352.099 220.223C344.004 219.125 339.922 212.264 339.802 205.509C339.711 200.295 342.451 195.59 344.583 190.855C347.247 184.942 349.623 178.664 346.794 171.372C344.234 164.8 337.521 161.29 333.639 155.619C323.163 140.311 343.404 117.915 358.591 132.438C364.02 137.628 365.744 144.862 362.468 153.754C359.809 160.973 353.937 164.619 353.563 172.382C353.4 181.47 358.873 185.266 363.429 191.299C365.578 192.584 369.119 192.121 371.339 188.468C371.438 187.865 371.492 187.177 371.492 186.4C371.492 184.557 371.641 182.62 371.978 180.594C374.582 166.591 387.624 156.681 400.573 159.312C404.657 160.141 408.347 161.998 411.435 164.598C423.303 174.591 425.144 197.123 411.975 206.766C408.627 209.216 405.015 210.84 402.265 214.306C401.313 215.506 400.466 216.926 399.767 218.677C398.916 220.811 399.749 222.027 400.348 223.065C401.068 224.308 401.845 225.23 404.269 226.217C416.934 231.373 420.36 208.17 428.697 201.213C438.146 193.326 450.928 198.893 455.247 209.621C460.306 222.186 453.22 232.845 443.331 236.277C439.721 237.532 437.347 237.342 432.765 236.614C427.537 235.784 423.845 233.624 420.287 234.098C412.055 235.192 410.155 240.014 407.91 245.371C397.746 269.618 373.228 258.591 375.111 239.042C375.609 233.856 377.817 230.894 381.948 226.556C384.402 223.979 385.295 221.602 385.516 219.581C385.622 218.612 385.674 217.373 385.526 216.034C385.183 212.964 384.453 212.173 382.525 210.105C380.681 208.129 378.957 206.616 376.421 203.237C373.173 202.053 369.029 205.195 367.696 207.943Z" fill="white"/>
<path fill-rule="evenodd" clip-rule="evenodd" d="M458.632 320.772C452.813 297.885 483.658 287.535 489.969 309.932C496.722 333.898 465.216 346.666 458.632 320.772Z" fill="white"/>
</svg>
