<svg width="179" height="35" viewBox="0 0 179 35" fill="none" xmlns="http://www.w3.org/2000/svg">
<g clip-path="url(#clip0)">
<rect width="179" height="35" fill="#282a36"/>
<path fill-rule="evenodd" clip-rule="evenodd" d="M23.9097 27.0902C24.2391 27.1388 24.5803 26.992 24.6923 26.7182C24.7993 26.4565 24.7097 25.6342 24.6949 25.2941C24.6513 24.278 24.6481 23.3953 24.6773 22.3818C24.6985 21.6497 24.8422 20.1088 24.4711 19.5696C24.4146 19.4876 24.35 19.3553 24.2657 19.2951C24.2 19.2483 24.1096 19.2449 23.9929 19.2428C23.8888 19.2408 23.8362 19.229 23.7648 19.2427C23.6352 19.2674 23.5792 19.2966 23.4624 19.4286C23.1051 19.8323 23.1276 21.3755 22.7337 22.5452C22.5495 23.0923 22.2714 23.4796 21.8484 23.7133C21.6276 23.8353 21.3671 23.9222 21.0609 23.9197C20.6899 23.9165 20.1772 23.8425 19.899 23.5738C19.0524 22.7562 19.3603 20.1724 18.676 19.3641C18.5814 19.2523 18.4509 19.1965 18.3119 19.1831C18.2106 19.1734 18.1478 19.2203 18.0479 19.2498C18.0274 19.2556 17.947 19.244 17.9277 19.2774C17.9168 19.2964 17.9183 19.3322 17.8876 19.3147C17.8647 19.3016 17.8596 19.2853 17.8333 19.297C17.7422 19.3371 17.6164 19.4469 17.5724 19.5274C17.3849 19.8699 17.4066 20.4066 17.4188 20.8943C17.4448 21.922 17.5162 22.8952 17.538 23.9102C17.549 24.4187 17.4921 26.5914 17.637 26.8841C17.6859 26.9828 17.716 27.0471 17.853 27.1089C17.9046 27.1321 17.9895 27.1188 18.0728 27.1231C18.1536 27.127 18.2327 27.1499 18.306 27.1311C18.4726 27.0886 18.4802 27.0243 18.5081 26.8699C18.5971 26.3777 18.5036 25.754 18.5762 25.2822C18.6133 25.0405 18.6406 24.8658 18.7875 24.7204C18.9289 24.5804 19.0486 24.5164 19.17 24.4785C19.6028 24.3435 19.8415 24.3283 20.2889 24.762C20.6076 25.162 20.4819 25.6604 20.6417 25.8956C20.7321 26.0288 20.994 26.0522 21.2046 25.9871C21.3764 25.9339 21.5077 25.8335 21.5378 25.5893C21.6198 24.923 21.835 24.4883 22.189 24.4266C22.488 24.3745 22.9153 24.4081 23.1941 24.5902C23.958 25.089 23.6435 25.9562 23.6774 26.7127C23.6839 26.8539 23.6953 26.925 23.7337 26.9836C23.7631 27.0284 23.8008 27.0741 23.9095 27.0902L23.9097 27.0902ZM23.6925 21.7067C23.5872 22.2551 23.4921 22.719 23.208 23.1681C23.0932 23.3495 23.0013 23.4052 22.9091 23.5779C23.5113 23.4012 23.9093 22.3683 24.121 21.632C24.1431 21.5553 24.1447 21.5746 24.0748 21.599C23.9598 21.6392 23.8516 21.6451 23.7489 21.6501C23.6909 21.6527 23.7039 21.6475 23.6924 21.7067L23.6925 21.7067ZM23.7403 21.2976C23.7804 21.3247 24.0021 21.3002 24.0536 21.2839C24.1051 21.2678 24.1486 21.2418 24.1814 21.2027C24.2056 21.1475 24.2122 21.0494 24.2133 20.9579C24.2159 20.6984 24.2139 20.566 24.1092 20.4439C24.0159 20.3354 23.9019 20.3598 23.8346 20.4726C23.7473 20.6189 23.741 21.1155 23.7403 21.2975L23.7403 21.2976Z" fill="#ffffff" stroke="#ffffff" stroke-width="0.05715"/>
<path fill-rule="evenodd" clip-rule="evenodd" d="M25.3324 19.2314C25.3212 19.5122 25.3451 19.9202 25.3533 20.4328C25.3856 22.4269 25.5314 25.6996 25.2116 26.8235C24.5695 29.081 21.334 29.1802 19.4807 28.8429C18.3234 28.6322 17.4617 28.1272 17.0489 27.2894C16.5893 26.3567 16.7726 24.6521 16.7821 23.509C16.7932 22.1815 16.8067 20.854 16.822 19.5267C16.8265 19.1652 16.8481 18.8726 16.5525 18.8143C16.4976 18.8036 16.3002 18.8433 16.2641 18.8906C16.2338 18.9303 16.2693 18.944 16.2257 18.9584C16.1456 18.9851 16.044 18.9254 15.9748 18.9545C15.6904 19.0745 15.6163 19.1799 15.5879 19.5067C15.573 19.6793 15.6201 19.8148 15.6408 20.008C15.6687 20.2678 15.6773 20.5832 15.6918 20.7674C15.7883 21.9965 15.8792 23.2267 15.9738 24.4592C16.066 25.6616 16.064 26.8626 16.6157 27.7826C17.574 29.3806 20.2562 29.9763 22.6682 29.6348C24.6764 29.3505 25.5038 28.0284 25.8804 26.5012C26.2977 24.8087 26.2028 22.8964 26.3542 21.3167C26.4122 20.7113 26.5638 20.0354 26.6131 19.4268C26.6407 19.0861 26.6852 18.798 26.2972 18.7762C26.2279 18.7724 26.0657 18.7801 25.9384 18.8105C25.9043 18.8187 25.8692 18.8624 25.7939 18.8842C25.7536 18.8959 25.6926 18.8927 25.6512 18.9007C25.6294 18.9053 25.5743 18.9358 25.553 18.9418C25.5261 18.9492 25.4932 18.9476 25.4716 18.9546C25.3358 18.9993 25.3374 19.106 25.3324 19.2314L25.3324 19.2314Z" fill="#ffffff" stroke="#ffffff" stroke-width="0.05715"/>
<path fill-rule="evenodd" clip-rule="evenodd" d="M17.8671 17.6599C17.8433 17.1027 15.9432 17.3675 15.2303 17.2086C14.7604 16.0354 15.0497 14.7171 14.2484 13.1514C13.4533 11.5978 11.9562 10.2662 10.7253 8.59811C8.68 5.82613 8.36386 1.52356 9.14214 -1.99238C9.8207 -5.05787 11.4499 -7.55796 13.8151 -9.35391C15.0682 -10.3054 16.5881 -11.068 17.903 -11.5195C19.8529 -12.1891 22.4889 -12.1882 24.4359 -11.5195C25.7508 -11.068 27.2707 -10.3054 28.5239 -9.35391C30.889 -7.55796 32.5182 -5.05787 33.1968 -1.99238C33.9751 1.52354 33.5113 5.7689 31.4659 8.54087C30.2351 10.209 28.8856 11.5978 28.0905 13.1514C27.7196 13.8762 27.5899 14.4899 27.516 15.0684C27.4541 15.5524 27.3894 16.7643 27.2332 17.1541C27.0953 17.1848 26.6985 17.2467 26.4997 17.2552C25.6702 17.2907 24.491 17.2105 24.4718 17.6599C24.4841 18.0612 26.5233 18.0185 27.1145 17.8253C27.605 17.6651 27.6639 17.491 27.7617 16.986C27.868 16.4369 27.9492 15.3943 28.0587 14.9651C28.2759 14.1142 28.5359 13.3807 29.004 12.6351C29.7928 11.3786 30.6466 10.5871 31.4349 9.56858C33.0172 7.5244 34.3363 5.29614 34.339 1.67296C34.3417 -2.09972 33.0711 -6.01179 30.8945 -8.4246C25.3913 -14.5251 16.9477 -14.5251 11.4444 -8.4246C9.25576 -5.99846 7.98319 -2.05657 8.00017 1.73537C8.00619 3.08221 8.23429 4.31952 8.55519 5.38833C9.65669 9.05739 11.5474 9.99553 13.446 12.9525C13.9667 13.7634 14.0342 14.7214 14.4216 16.7213C14.5193 17.2262 14.7339 17.6651 15.2244 17.8253C15.8156 18.0185 17.8549 18.0612 17.8671 17.6599V17.6599Z" fill="#ffffff" stroke="#ffffff" stroke-width="0.05715"/>
<path fill-rule="evenodd" clip-rule="evenodd" d="M17.3868 1.52595C17.7551 0.8306 18.5153 0.69461 18.7 -0.351312C18.8609 -1.26215 18.5071 -2.14323 17.755 -2.58009C17.0808 -2.9717 16.5295 -2.78142 16.1798 -2.66004C16.0424 -2.61239 15.8863 -2.48833 15.7394 -2.44788C15.5291 -2.38981 15.2001 -2.52381 15.0976 -2.77991C15.0492 -2.90097 15.0161 -3.02761 14.9818 -3.14923C14.8347 -3.6686 14.4352 -3.98778 13.9345 -3.92643C13.5956 -3.88485 13.2853 -3.63899 13.143 -3.37599C12.8609 -2.85478 13.0436 -2.08129 13.7165 -1.82002C14.0271 -1.69939 14.2998 -1.87362 14.5938 -1.83303C14.7563 -1.81063 15.0128 -1.61064 15.0442 -1.44653C15.0706 -1.30867 15.0519 -1.07951 15.0644 -0.967157C15.18 0.0768602 15.4819 0.395906 16.0606 0.932693C16.5387 1.37602 16.4821 2.09586 16.0494 2.8467C15.8824 3.13655 15.7007 3.33134 15.6401 3.56951C15.1569 5.4685 17.7779 5.77307 17.77 3.98627C17.7658 3.06717 16.7667 2.69687 17.3868 1.52595V1.52595Z" fill="#ffffff"/>
<path fill-rule="evenodd" clip-rule="evenodd" d="M19.9402 3.88273C19.8216 3.97746 19.7123 4.09509 19.6767 4.22071C19.5711 4.59643 19.5907 4.98001 19.7092 5.24126C19.8674 5.59004 20.3614 5.87767 20.4146 6.5692C20.4532 7.07002 20.1989 7.61204 19.6069 7.76137C19.0954 7.89044 18.5426 7.55638 18.3654 6.98399C18.2553 6.62859 18.2949 6.15991 18.5647 5.71657C18.6928 5.50624 18.8563 5.39249 18.9719 5.20065C19.1225 4.9503 19.2057 4.61381 19.1629 4.23399C19.0807 3.66274 18.6202 3.44249 18.3724 2.93059C18.0213 2.20517 18.2048 1.30101 18.7739 0.859983C19.2281 0.508121 20.0512 0.652178 20.4234 1.09137C21.0353 1.81346 20.6478 3.31756 19.9402 3.88273V3.88273Z" fill="#ffffff"/>
<path fill-rule="evenodd" clip-rule="evenodd" d="M9.93745 -1.55268C9.82417 -0.864193 10.0984 -0.0445614 10.7399 0.225394C11.2384 0.435241 11.8482 0.358106 12.2903 0.694057C12.7801 1.06763 12.8653 1.62004 12.9158 2.16091C12.9397 2.41739 12.9612 2.73489 13.0311 3.0998C13.059 3.24538 13.0399 3.38314 13.0173 3.48568C12.9641 3.7257 12.865 3.94864 12.6395 4.14915C12.2379 4.48225 11.7881 4.30059 11.3085 4.47326C10.7179 4.68582 10.3533 5.19833 10.3451 5.75864C10.3352 6.43318 10.8008 7.0378 11.4353 7.06344C11.985 7.08553 12.5899 6.73067 12.7225 6.0997C12.8255 5.60953 12.6916 5.05021 12.8996 4.59729C13.0444 4.28348 13.2629 4.10861 13.5076 3.99411C13.8114 3.8522 13.7779 3.97318 14.0729 3.9818C14.2449 3.98685 14.4286 3.94727 14.617 3.85096C15.144 3.58133 15.4183 2.87673 15.2159 2.24467C15.0902 1.85211 14.7634 1.47249 14.2511 1.28714C13.6911 1.08442 13.1565 1.0822 12.804 0.439771C12.5194 -0.120273 12.7839 -0.656733 12.6809 -1.28868C12.554 -2.067 12.0749 -2.60974 11.4873 -2.71169C10.7797 -2.83448 10.0681 -2.34723 9.93745 -1.55268V-1.55268Z" fill="#ffffff"/>
<path fill-rule="evenodd" clip-rule="evenodd" d="M15.6557 7.87405C14.803 7.52734 14.5724 9.08758 14.0111 9.55538C13.375 10.0857 12.5145 9.71133 12.2237 8.99007C11.8831 8.14509 12.3602 7.42838 13.0259 7.1976C13.2689 7.11322 13.4288 7.12596 13.7373 7.17496C14.0892 7.23076 14.3378 7.37595 14.5773 7.34413C15.1315 7.27051 15.2594 6.9463 15.4105 6.5861C16.0948 4.95564 17.7454 5.69723 17.6187 7.01163C17.5851 7.36033 17.4365 7.55957 17.1584 7.85124C16.9932 8.02456 16.9331 8.18442 16.9182 8.32029C16.9027 8.46131 16.9375 8.58016 17.0463 8.81301C17.1957 9.13256 17.367 9.18502 17.5305 9.41927C17.7622 9.75131 17.9536 10.2751 17.8296 10.9418C17.6543 11.8835 16.7762 12.5498 15.9045 12.3729C15.6296 12.3172 15.3811 12.1923 15.1732 12.0174C14.3742 11.3455 14.2503 9.83042 15.1369 9.18205C15.3623 9.01727 15.6055 8.90802 15.7906 8.67495C15.8547 8.5943 15.9117 8.49877 15.9587 8.381C16.016 8.23755 15.9599 8.15578 15.9196 8.08599C15.8712 8.0024 15.8189 7.94042 15.6557 7.87405V7.87405Z" fill="#ffffff"/>
<path fill-rule="evenodd" clip-rule="evenodd" d="M20.2607 14.2305C20.6117 13.8085 20.747 13.1121 20.4106 12.6212C20.1493 12.2398 19.6974 12.0038 19.525 11.562C19.3346 11.0716 19.4945 10.6495 19.6739 10.2518C19.8174 9.93347 20.0019 9.61712 19.9958 9.26656C19.9877 8.8123 19.7128 8.35092 19.1679 8.27711C18.6969 8.21336 18.2284 8.57013 18.1179 9.10287C18.0492 9.43366 18.1247 9.85098 18.4051 10.2221C18.7119 10.6278 19.0803 10.8829 19.0694 11.494C19.0442 12.016 18.6489 12.2611 18.4698 12.7466C18.2492 13.3446 18.3653 13.9469 18.7308 14.296C19.1711 14.7166 19.8558 14.7175 20.2607 14.2305V14.2305Z" fill="#ffffff"/>
<path fill-rule="evenodd" clip-rule="evenodd" d="M11.9931 1.94469C12.4071 3.48365 10.2126 4.1796 9.76361 2.67363C9.28314 1.06207 11.5247 0.203492 11.9931 1.94469Z" fill="#ffffff"/>
<path fill-rule="evenodd" clip-rule="evenodd" d="M24.7938 -1.81806C25.0924 -1.63516 25.226 -1.87266 25.49 -1.97733C26.2122 -2.26373 27.2201 -1.65504 26.8975 -0.386896C26.8369 -0.148814 26.6552 0.0460825 26.4881 0.335914C26.0555 1.08677 26.224 1.84947 26.702 2.29275C27.2808 2.82953 27.5828 3.14858 27.6983 4.19258C27.777 4.90385 28.4376 6.17032 29.0106 6.37582C29.2779 6.47175 29.4394 6.42719 29.6048 6.41748C29.9473 6.39726 30.2386 6.59015 30.4148 6.87052C30.9127 7.66315 30.3416 8.56464 29.4966 8.3232C29.2001 8.23854 28.9321 7.90887 28.789 7.40284C28.7547 7.28148 28.7336 7.14772 28.6731 7.03354C28.2402 6.2174 27.318 5.68442 26.5536 5.94972C26.1839 6.07796 25.5562 6.05458 25.1422 5.87743C24.3085 5.5209 23.7724 4.6006 23.9746 3.45597C24.1593 2.4101 24.7825 2.352 25.1508 1.65665C25.7709 0.485723 24.7717 0.115444 24.7676 -0.803671C24.7664 -1.07026 24.7367 -1.1981 24.578 -1.33081C24.315 -1.5507 23.9897 -1.4465 23.717 -1.3277C23.1447 -1.07835 22.4122 -1.27673 22.1668 -2.18905C21.7528 -3.728 23.9473 -4.42393 24.3963 -2.91802C24.4397 -2.77242 24.461 -2.63291 24.4632 -2.50104C24.4689 -2.16406 24.5286 -1.9805 24.7938 -1.81806V-1.81806Z" fill="#ffffff"/>
<path fill-rule="evenodd" clip-rule="evenodd" d="M23.1413 11.3804C22.5918 11.9527 23.5758 12.7129 23.6908 13.3443C23.8212 14.0601 23.2499 14.6287 22.6495 14.6032C21.9463 14.5733 21.6301 13.9198 21.7157 13.2894C21.7469 13.0592 21.8141 12.9328 21.9605 12.6977C22.1275 12.4295 22.3179 12.2788 22.3838 12.0707C22.5362 11.5894 22.361 11.3658 22.1696 11.1101C21.3036 9.95221 22.4155 8.86997 23.2691 9.45496C23.4956 9.61007 23.5777 9.80486 23.6756 10.1397C23.7339 10.3386 23.8213 10.4463 23.9089 10.5083C23.9998 10.5726 24.0939 10.5876 24.2932 10.5836C24.5667 10.578 24.6653 10.4567 24.8855 10.4084C25.1977 10.3398 25.6264 10.3746 26.0376 10.7203C26.6182 11.2087 26.7532 12.1726 26.313 12.8228C26.1742 13.0278 25.9978 13.1858 25.802 13.2923C25.0495 13.7017 23.9666 13.2488 23.8471 12.2845C23.8168 12.0393 23.831 11.7999 23.7391 11.5628C23.7073 11.4807 23.6628 11.399 23.5994 11.3174C23.5221 11.2179 23.4455 11.234 23.383 11.2415C23.3081 11.2506 23.2465 11.2708 23.1413 11.3804V11.3804Z" fill="#ffffff"/>
<path fill-rule="evenodd" clip-rule="evenodd" d="M32.6001 5.31994C32.7134 4.63143 32.4392 3.81174 31.7976 3.54182C31.2991 3.33199 30.6893 3.40913 30.2473 3.07314C29.909 2.81517 29.7927 2.4584 29.8105 2.08318C29.8552 1.13998 29.7635 1.11169 29.5551 0.426472C29.5127 0.287014 29.4888 0.144347 29.5244 -0.00932221C29.5784 -0.242426 29.6782 -0.459311 29.8982 -0.654706C30.2998 -0.987927 30.7494 -0.806263 31.229 -0.978898C31.8196 -1.19149 32.1842 -1.70401 32.1924 -2.26414C32.2024 -2.93887 31.7367 -3.5433 31.1023 -3.56894C30.5525 -3.5911 29.9475 -3.23626 29.815 -2.60531C29.7121 -2.11512 29.846 -1.55583 29.6379 -1.10294C29.4899 -0.781925 29.2648 -0.606215 29.0132 -0.491955C28.7352 -0.365748 28.7954 -0.458967 28.5264 -0.483718C27.8388 -0.547002 27.2896 -0.106778 27.1214 0.538846C27.0527 0.802588 27.0708 1.09992 27.1749 1.42518C27.3004 1.81743 27.7742 2.29483 28.2864 2.48015C28.8464 2.68284 29.3811 2.68501 29.7335 3.32746C30.0182 3.88758 29.7536 4.42397 29.8567 5.05598C29.9836 5.8343 30.4627 6.37697 31.0502 6.47891C31.7579 6.60177 32.4694 6.11453 32.6001 5.31994V5.31994Z" fill="#ffffff"/>
<path fill-rule="evenodd" clip-rule="evenodd" d="M22.1385 1.95789C21.9476 1.62575 21.8188 1.37245 21.7892 0.985912C21.7736 0.782931 21.8164 0.542327 21.9126 0.320826C22.3786 -0.752113 23.8243 -0.38949 24.0832 0.447185C24.1931 0.802308 24.1536 1.27128 23.8838 1.71463C23.4874 2.36579 23.2987 2.37324 23.1353 3.21445C23.0484 3.66199 22.9909 4.18693 22.9812 4.60709C22.9722 4.99712 23.1741 5.51324 23.5301 5.65483C24.0323 5.85456 24.2429 6.02744 24.6514 6.9838C24.8813 7.52182 25.2235 8.01749 25.8643 8.159C26.4423 8.28557 27.0243 7.91704 27.6087 7.88989C28.3608 7.85492 28.9629 8.54761 29.1235 9.29341C29.3089 10.154 28.7881 10.9831 28.0282 11.1974C27.3973 11.3754 26.6997 11.0588 26.262 10.3374C25.9067 9.7517 25.9587 9.08648 25.4496 8.65959C24.8394 8.18245 24.1644 8.64158 23.521 8.70506C22.7562 8.78046 22.3392 8.75066 21.7982 8.11069C21.4568 7.70673 21.4467 7.02007 21.639 6.4895C21.7791 6.10231 22.0669 5.82224 22.2544 5.44666C22.4932 4.96835 22.6471 2.84845 22.4903 2.47441C22.3786 2.20821 22.2837 2.21036 22.1385 1.95789V1.95789Z" fill="#ffffff"/>
<path fill-rule="evenodd" clip-rule="evenodd" d="M30.5417 1.66664C30.1499 0.127699 32.2265 -0.568267 32.6513 0.937702C33.106 2.54928 30.9849 3.40784 30.5417 1.66664Z" fill="#ffffff"/>
<path d="M51.9894 24H50.3201V12.6869L46.5279 24H44.9494L41.1571 12.6869V24H39.4879V10.7001H42.1279L45.7296 21.7864L49.3494 10.7001H51.9894V24ZM60.8349 21.4688V19.3369H59.6646C57.1848 19.3369 55.9449 20.0112 55.9449 21.36C55.9449 21.8499 56.1264 22.2279 56.4893 22.494C56.8522 22.7541 57.3421 22.8841 57.959 22.8841C58.5215 22.8841 59.0658 22.7571 59.592 22.5031C60.1182 22.2491 60.5325 21.9043 60.8349 21.4688ZM60.8349 23.0111C59.964 23.8216 58.842 24.2268 57.4691 24.2268C56.5135 24.2268 55.7272 23.9698 55.1103 23.4557C54.4934 22.9355 54.1849 22.2672 54.1849 21.4507C54.1849 19.2008 56.1234 18.0758 60.0002 18.0758H60.8349C60.8349 17.3863 60.7986 16.8873 60.726 16.5789C60.6534 16.2644 60.4508 16.0043 60.1182 15.7987C59.7855 15.593 59.2563 15.4902 58.5305 15.4902C57.0064 15.4902 56.2201 16.0346 56.1717 17.1232H54.4662C54.5932 15.1455 55.9782 14.1566 58.6213 14.1566C59.8551 14.1566 60.8167 14.4015 61.5062 14.8914C62.1957 15.3813 62.5405 16.343 62.5405 17.7764V24H60.8349V23.0111ZM72.9827 24H70.8597L68.4647 20.2441L66.0696 24H63.9467L67.503 19.0012L64.2279 14.3743H66.3508L68.4647 17.7401L70.5785 14.3743H72.7014L69.4263 18.983L72.9827 24ZM76.0854 24H74.3707V14.3743H76.0854V24ZM76.0854 12.5508H74.3707V10.7001H76.0854V12.5508ZM91.6262 24H89.9115V17.7764C89.9115 16.9781 89.7966 16.4095 89.5668 16.0708C89.3369 15.7321 88.9529 15.5628 88.4146 15.5628C87.586 15.5628 86.7725 16.0769 85.9741 17.1051V24H84.2686V17.7764C84.2686 16.9781 84.1536 16.4095 83.9238 16.0708C83.694 15.7321 83.3069 15.5628 82.7626 15.5628C81.934 15.5628 81.1235 16.0769 80.3312 17.1051V24H78.6165V14.3743H80.3312V15.5991C81.1416 14.6374 82.0398 14.1566 83.0257 14.1566C84.4349 14.1566 85.333 14.7372 85.7201 15.8985C86.3612 15.1424 86.9056 14.6646 87.3531 14.465C87.8007 14.2594 88.2392 14.1566 88.6686 14.1566C90.6403 14.1566 91.6262 15.339 91.6262 17.7038V24ZM99.5372 24.2268C97.9949 24.2268 96.8397 23.9274 96.0716 23.3287C95.3095 22.7299 94.8256 22.0253 94.62 21.2148C94.4204 20.4044 94.3206 19.4639 94.3206 18.3933V10.7001H96.0806V18.3661C96.0806 20.114 96.374 21.2632 96.9607 21.8136C97.5473 22.364 98.4062 22.6392 99.5372 22.6392C100.668 22.6392 101.527 22.364 102.114 21.8136C102.7 21.2632 102.994 20.114 102.994 18.3661V10.7001H104.763V18.3933C104.763 20.0022 104.569 21.1876 104.182 21.9497C103.801 22.7117 103.224 23.2833 102.449 23.6643C101.675 24.0393 100.704 24.2268 99.5372 24.2268ZM115.305 14.3743L111.667 24H110.143L106.505 14.3743H108.355L110.905 21.9043L113.454 14.3743H115.305ZM122.907 21.4688V19.3369H121.737C119.257 19.3369 118.017 20.0112 118.017 21.36C118.017 21.8499 118.199 22.2279 118.562 22.494C118.925 22.7541 119.415 22.8841 120.031 22.8841C120.594 22.8841 121.138 22.7571 121.664 22.5031C122.191 22.2491 122.605 21.9043 122.907 21.4688ZM122.907 23.0111C122.036 23.8216 120.914 24.2268 119.542 24.2268C118.586 24.2268 117.8 23.9698 117.183 23.4557C116.566 22.9355 116.257 22.2672 116.257 21.4507C116.257 19.2008 118.196 18.0758 122.073 18.0758H122.907C122.907 17.3863 122.871 16.8873 122.798 16.5789C122.726 16.2644 122.523 16.0043 122.191 15.7987C121.858 15.593 121.329 15.4902 120.603 15.4902C119.079 15.4902 118.293 16.0346 118.244 17.1232H116.539C116.666 15.1455 118.051 14.1566 120.694 14.1566C121.928 14.1566 122.889 14.4015 123.579 14.8914C124.268 15.3813 124.613 16.343 124.613 17.7764V24H122.907V23.0111ZM132.152 15.9348C131.91 15.8622 131.562 15.8259 131.109 15.8259C130.238 15.8259 129.491 16.2825 128.868 17.1958V24H127.153V14.3743H128.868V15.717C129.588 14.6767 130.422 14.1566 131.372 14.1566C131.614 14.1566 131.874 14.1808 132.152 14.2292V15.9348ZM137.242 14.1566C138.614 14.1566 139.709 14.5951 140.526 15.4721C141.348 16.3491 141.759 17.5889 141.759 19.1917C141.759 20.7884 141.348 22.0283 140.526 22.9113C139.709 23.7883 138.614 24.2268 137.242 24.2268C135.875 24.2268 134.78 23.7883 133.957 22.9113C133.141 22.0283 132.733 20.7884 132.733 19.1917C132.733 17.5889 133.141 16.3491 133.957 15.4721C134.78 14.5951 135.875 14.1566 137.242 14.1566ZM137.242 22.8841C138.058 22.8841 138.72 22.5757 139.228 21.9587C139.736 21.3358 139.99 20.4134 139.99 19.1917C139.99 17.9639 139.736 17.0416 139.228 16.4247C138.72 15.8017 138.058 15.4902 137.242 15.4902C136.425 15.4902 135.763 15.8017 135.255 16.4247C134.747 17.0416 134.493 17.9639 134.493 19.1917C134.493 20.4134 134.747 21.3358 135.255 21.9587C135.763 22.5757 136.425 22.8841 137.242 22.8841ZM151.467 14.3743L147.829 24H146.305L142.667 14.3743H144.517L147.067 21.9043L149.616 14.3743H151.467ZM155.223 24H153.363V22.1402H155.223V24ZM163.143 15.9348C162.901 15.8622 162.553 15.8259 162.1 15.8259C161.229 15.8259 160.482 16.2825 159.859 17.1958V24H158.144V14.3743H159.859V15.717C160.578 14.6767 161.413 14.1566 162.363 14.1566C162.605 14.1566 162.865 14.1808 163.143 14.2292V15.9348ZM170.428 22.7752C169.575 23.743 168.616 24.2268 167.552 24.2268C165.381 24.2268 164.295 23.0414 164.295 20.6705V14.3743H166.01V20.5979C166.01 21.3842 166.149 21.9497 166.427 22.2944C166.705 22.6392 167.165 22.8115 167.806 22.8115C168.762 22.8115 169.636 22.2974 170.428 21.2692V14.3743H172.133V24H170.428V22.7752Z" fill="white"/>
</g>
<defs>
<clipPath id="clip0">
<rect width="179" height="35" fill="#282a36"/>
</clipPath>
</defs>
</svg>
