<svg width="20" height="18" viewBox="0 0 20 18" fill="none" xmlns="http://www.w3.org/2000/svg">
<path fill-rule="evenodd" clip-rule="evenodd" d="M14.5777 13.9718C15.1279 14.053 15.6979 13.8079 15.885 13.3504C16.0637 12.9132 15.914 11.5396 15.8893 10.9715C15.8165 9.27396 15.8111 7.79937 15.86 6.10641C15.8953 4.8833 16.1353 2.30916 15.5154 1.40843C15.4212 1.27154 15.3132 1.05041 15.1723 0.949975C15.0626 0.871731 14.9115 0.865992 14.7166 0.862524C14.5427 0.859273 14.4548 0.839546 14.3355 0.862292C14.1191 0.90369 14.0255 0.952454 13.8304 1.17299C13.2335 1.84734 13.271 4.4253 12.6131 6.37925C12.3054 7.29332 11.8409 7.94018 11.1341 8.33068C10.7654 8.53445 10.3301 8.67969 9.81866 8.67549C9.19884 8.67008 8.34244 8.54647 7.87768 8.09754C6.46331 6.73182 6.97778 2.41548 5.83462 1.0651C5.67657 0.878376 5.45857 0.785243 5.22632 0.762886C5.05704 0.746523 4.95222 0.824982 4.78525 0.874215C4.75101 0.883968 4.61671 0.864464 4.58459 0.920383C4.56638 0.952027 4.56888 1.01195 4.51751 0.982583C4.47925 0.960801 4.47069 0.933602 4.4268 0.953001C4.27466 1.02008 4.06441 1.20357 3.99095 1.33791C3.67772 1.9101 3.71394 2.80674 3.73441 3.62134C3.77776 5.33828 3.89707 6.96395 3.93352 8.65952C3.95183 9.50905 3.85679 13.1386 4.09884 13.6275C4.18055 13.7925 4.23079 13.8998 4.45975 14.003C4.5459 14.0418 4.68781 14.0196 4.8269 14.0268C4.96192 14.0333 5.09396 14.0715 5.21652 14.0402C5.49473 13.9692 5.50755 13.8618 5.55412 13.6039C5.7027 12.7816 5.54653 11.7397 5.66788 10.9516C5.72976 10.5478 5.77538 10.2559 6.02082 10.013C6.25702 9.77915 6.45699 9.67223 6.65988 9.60895C7.38275 9.38343 7.78165 9.35794 8.52905 10.0826C9.06138 10.7508 8.85135 11.5832 9.11833 11.9763C9.26943 12.1988 9.70684 12.2378 10.0587 12.129C10.3457 12.0403 10.565 11.8725 10.6153 11.4646C10.7523 10.3515 11.1118 9.62529 11.7032 9.52224C12.2026 9.43522 12.9164 9.49125 13.3822 9.79547C14.6583 10.6288 14.133 12.0775 14.1896 13.3413C14.2004 13.5771 14.2195 13.6959 14.2837 13.7938C14.3328 13.8686 14.3957 13.945 14.5773 13.9718L14.5777 13.9718ZM14.2147 4.9786C14.0389 5.89465 13.88 6.66968 13.4054 7.41991C13.2137 7.72285 13.0602 7.816 12.9061 8.10439C13.9122 7.8092 14.577 6.08375 14.9307 4.85371C14.9675 4.72566 14.9701 4.75791 14.8534 4.79866C14.6614 4.86574 14.4806 4.8756 14.309 4.88394C14.2121 4.88828 14.2338 4.87961 14.2147 4.97855L14.2147 4.9786ZM14.2946 4.29507C14.3617 4.34048 14.7321 4.29941 14.818 4.27232C14.904 4.24533 14.9767 4.20188 15.0316 4.13658C15.072 4.04447 15.083 3.88047 15.0848 3.72759C15.0891 3.2942 15.0859 3.07291 14.911 2.86904C14.755 2.68777 14.5645 2.72854 14.4521 2.91694C14.3064 3.16131 14.2958 3.99088 14.2946 4.29504L14.2946 4.29507Z" fill="#1B1918" stroke="#1B1918" stroke-width="0.05715"/>
<path fill-rule="evenodd" clip-rule="evenodd" d="M16.9542 0.843522C16.9356 1.31261 16.9755 1.99413 16.9892 2.8505C17.0431 6.18167 17.2867 11.6488 16.7525 13.5263C15.6798 17.2975 10.2748 17.4632 7.17886 16.8997C5.24547 16.5477 3.80606 15.7043 3.11642 14.3047C2.34861 12.7464 2.65484 9.89892 2.67078 7.9893C2.68931 5.77179 2.71185 3.55417 2.73742 1.33683C2.74501 0.732863 2.781 0.244111 2.28721 0.146795C2.19553 0.128805 1.86577 0.195128 1.8055 0.27413C1.75489 0.340453 1.81417 0.36332 1.74135 0.387443C1.60744 0.431983 1.43773 0.332286 1.32209 0.380944C0.84704 0.581451 0.72319 0.757421 0.6758 1.30341C0.650875 1.59169 0.729557 1.81811 0.764127 2.14079C0.810726 2.5748 0.825137 3.10166 0.849304 3.40938C1.01053 5.46271 1.16238 7.51778 1.3204 9.57673C1.47454 11.5853 1.47113 13.5917 2.39271 15.1285C3.99358 17.798 8.47438 18.7931 12.5036 18.2227C15.8584 17.7477 17.2407 15.5392 17.8698 12.9879C18.5669 10.1605 18.4084 6.96606 18.6613 4.32709C18.7581 3.3157 19.0114 2.18656 19.0937 1.16991C19.1399 0.600749 19.2142 0.11956 18.5659 0.0831479C18.4502 0.0766457 18.1793 0.0896534 17.9667 0.140371C17.9097 0.154025 17.8511 0.227067 17.7253 0.263555C17.658 0.283062 17.556 0.27775 17.4868 0.29108C17.4505 0.298665 17.3584 0.349709 17.3229 0.359679C17.2779 0.372142 17.223 0.369431 17.1868 0.381135C16.96 0.455802 16.9626 0.634084 16.9543 0.843456L16.9542 0.843522Z" fill="#1B1918" stroke="#1B1918" stroke-width="0.05715"/>
</svg>
